<svg height="32.697" viewBox="0 0 26.258 32.697" width="26.258" xmlns="http://www.w3.org/2000/svg"><path d="m11.73-15.725a1.963 1.963 0 0 0 2.789-.008l11.157-11.157a1.961 1.961 0 0 0 0-2.781l-1.87-1.846a1.961 1.961 0 0 0 -2.781 0l-7.908 7.908-7.908-7.907a1.961 1.961 0 0 0 -2.781 0l-1.854 1.854a1.961 1.961 0 0 0 0 2.781zm2.789 15.75 11.157-11.157a1.961 1.961 0 0 0 0-2.781l-1.854-1.854a1.961 1.961 0 0 0 -2.781 0l-7.916 7.9-7.908-7.908a1.961 1.961 0 0 0 -2.781 0l-1.862 1.854a1.961 1.961 0 0 0 0 2.781l11.156 11.156a1.963 1.963 0 0 0 2.789.009z" fill="#fff" transform="translate(.004 32.095)"/></svg>