<svg height="92.49" viewBox="0 0 80.404 92.49" width="80.404" xmlns="http://www.w3.org/2000/svg"><g fill="#e09145"><path d="m26.338 20.7a2.341 2.341 0 0 0 1.662-.694 2.348 2.348 0 0 0 0-3.331l-4.95-4.954a2.388 2.388 0 0 0 -3.331 0 2.348 2.348 0 0 0 0 3.331l4.955 4.954a2.339 2.339 0 0 0 1.664.694z" transform="translate(-5.952 -.757)"/><path d="m14.671 40.3h-7.006a2.365 2.365 0 0 0 0 4.729h7.007a2.365 2.365 0 1 0 0-4.729z" transform="translate(-5.3 -3.338)"/><path d="m49.665 11.036a2.368 2.368 0 0 0 2.365-2.365v-7.006a2.365 2.365 0 1 0 -4.729 0v7.006a2.368 2.368 0 0 0 2.364 2.365z" transform="translate(-9.463 .701)"/><path d="m90.671 40.3h-7.006a2.365 2.365 0 1 0 0 4.729h7.007a2.365 2.365 0 0 0 0-4.729z" transform="translate(-12.633 -3.338)"/><path d="m62.827 26.557a23.952 23.952 0 0 0 -32.285 0 21.548 21.548 0 0 0 -7.242 16.115c0 8.228 3.166 13.4 6.133 17.6l.758 1.066c2.511 3.514 4.494 6.289 4.494 10.376v10.51a5.875 5.875 0 0 0 5.868 5.868h.294a5.869 5.869 0 0 0 11.673 0h.294a5.875 5.875 0 0 0 5.868-5.868v-10.513c0-4.086 1.983-6.861 4.492-10.375l.759-1.067c2.968-4.2 6.134-9.369 6.134-17.6a21.545 21.545 0 0 0 -7.24-16.112zm-16.142 62.058a1.107 1.107 0 0 1 -.976-.526h1.951a1.107 1.107 0 0 1 -.975.526zm0-63.585a18.185 18.185 0 0 1 18.655 17.642c0 6.874-2.379 10.8-5.251 14.864l-.723 1.014c-2.257 3.15-4.586 6.4-5.227 10.8h-14.907c-.642-4.396-2.971-7.65-5.232-10.8l-.723-1.014c-2.874-4.066-5.252-7.991-5.252-14.864a18.185 18.185 0 0 1 18.66-17.643zm-7.27 56.053h14.539v1.139a1.127 1.127 0 0 1 -1.139 1.139h-12.261a1.127 1.127 0 0 1 -1.139-1.139zm14.539-7.007v2.277h-14.539v-2.277z" transform="translate(-6.483 -.855)"/><path d="m32.536 44.389a2.115 2.115 0 0 0 .384.035 2.444 2.444 0 0 0 2.354-1.954 12.572 12.572 0 0 1 7.9-9.522 2.435 2.435 0 0 0 1.5-2.681 2.23 2.23 0 0 0 -2.237-1.873 3.2 3.2 0 0 0 -.952.149 17.277 17.277 0 0 0 -10.866 13.081 2.472 2.472 0 0 0 1.917 2.765z" transform="translate(-6.335 -.807)"/><path d="m75.579 11.721-4.954 4.954a2.355 2.355 0 1 0 3.33 3.331l4.955-4.954a2.348 2.348 0 0 0 0-3.331 2.388 2.388 0 0 0 -3.331 0z" transform="translate(-12.273 -.757)"/></g></svg>