<svg height="88.4" viewBox="0 0 82.284 88.4" width="82.284" xmlns="http://www.w3.org/2000/svg"><g fill="#e09145"><path d="m212.842 52.388c9.3-1.009 16.134-15.687 16.134-34.846a2.535 2.535 0 0 0 -2.577-2.577h-12.099v-2.016a2.535 2.535 0 0 0 -2.577-2.577h-39.663a2.536 2.536 0 0 0 -2.578 2.577v2.016h-12.1a2.536 2.536 0 0 0 -2.578 2.577c0 19.159 6.835 33.836 16.134 34.846 2.465 7.506 7.955 13.332 14.789 15.461v.451c0 7.955-7.731 14.454-17.254 14.454a2.535 2.535 0 0 0 -2.577 2.577v10.869a2.536 2.536 0 0 0 2.577 2.577h46.727a2.536 2.536 0 0 0 2.577-2.577v-10.872a2.535 2.535 0 0 0 -2.577-2.577c-9.524 0-17.254-6.5-17.254-14.454v-.448c6.83-2.129 12.32-7.955 14.896-15.461zm10.981-32.269c-.448 13.894-5.042 24.089-9.748 26.666a33.755 33.755 0 0 0 .224-3.473v-23.3h9.524zm-63.863 0h9.523v23.3c0 1.121.113 2.354.224 3.473-4.707-2.684-9.299-12.879-9.747-26.773zm52.771 67.674v6.05h-41.68v-5.943c10.868-1.121 19.5-9.188 19.719-18.935h2.241c.225 9.752 8.74 17.819 19.72 18.828zm-20.84-23.978c-9.524 0-17.367-9.187-17.367-20.5v-27.9h34.621v28.009c.112 11.205-7.73 20.391-17.254 20.391z" transform="translate(-152.134 -10.372)"/><path d="m178.316 87.526a2.536 2.536 0 0 0 2.577 2.578h20.392a2.577 2.577 0 0 0 0-5.155h-20.5a2.513 2.513 0 0 0 -2.469 2.577z" transform="translate(-151.556 -8.537)"/><path d="m217.947 61.21c0 7.155-7.3 7.3-7.3 7.3s7.3.281 7.3 7.3c0-7.155 7.3-7.3 7.3-7.3s-7.3-.145-7.3-7.3z" transform="translate(-150.76 -9.121)"/><path d="m227.565 47.85c0 5.05-5.191 5.191-5.191 5.191s5.191.14 5.191 5.191c0-5.05 5.191-5.191 5.191-5.191s-5.191-.141-5.191-5.191z" transform="translate(-150.472 -9.45)"/><path d="m159.812 68.505s7.3.14 7.3 7.3c0-7.014 7.294-7.3 7.294-7.3s-7.294-.14-7.294-7.3c-.005 7.16-7.3 7.3-7.3 7.3z" transform="translate(-152.011 -9.121)"/><path d="m152.2 53.041s5.191.14 5.191 5.191c0-5.05 5.191-5.191 5.191-5.191s-5.191-.14-5.191-5.191c-.002 5.05-5.191 5.191-5.191 5.191z" transform="translate(-152.198 -9.45)"/></g></svg>