<svg height="83.977" viewBox="0 0 92.54 83.977" width="92.54" xmlns="http://www.w3.org/2000/svg"><g fill="#e09145"><path d="m69.693 8.5-1.97-1.975a5.5 5.5 0 0 0 -7.756 0l-34.2 34.2a1.881 1.881 0 0 0 -.477.8l-2.957 10a1.9 1.9 0 0 0 2.35 2.375l10-2.957a1.864 1.864 0 0 0 .8-.479l34.2-34.207a5.476 5.476 0 0 0 .01-7.757zm-4.654.707 1.975 1.972a1.7 1.7 0 0 1 0 2.39l-2.238 2.236-4.362-4.362 2.238-2.233a1.69 1.69 0 0 1 2.387 0zm-36 39.445a4.247 4.247 0 0 0 -1.464-1.467l1.215-4.113 4.362 4.362z" transform="translate(21.24 -4.926)"/><path d="m12.859 52.676h50.433v4.747h-50.433z"/><path d="m45.5 16.824h-37v4.747h32.318a6.823 6.823 0 0 1 .477-.541z" transform="translate(4.359 10.781)"/><path d="m37.9 22.228h-29.4v4.747h28.038a5.429 5.429 0 0 1 .121-.543z" transform="translate(4.359 17.915)"/><path d="m74.481 62.079a3.765 3.765 0 0 1 -3.807 3.712h-42.648a2.417 2.417 0 0 0 -1.595.6l-8.71 7.7v-5.985a2.342 2.342 0 0 0 -2.373-2.314h-3.713a3.768 3.768 0 0 1 -3.807-3.712v-43.517a3.768 3.768 0 0 1 3.807-3.712h52.228l4.747-4.629h-56.975a8.46 8.46 0 0 0 -8.553 8.341v43.516a8.461 8.461 0 0 0 8.553 8.341h1.339v8.894a2.307 2.307 0 0 0 1.41 2.115 2.425 2.425 0 0 0 2.558-.4l12-10.609h41.735a8.461 8.461 0 0 0 8.553-8.341v-30.145l-4.747 4.629v25.516z" transform="translate(-3.082 2.347)"/></g></svg>